<svg xmlns="http://www.w3.org/2000/svg" width="350" height="93.874" viewBox="0 0 350 93.874"><g transform="translate(15647 -5041)"><g transform="translate(-15647 5041)"><g transform="translate(82.557 0)"><path d="M1357.547,704.824s-9.1,38.7-10.949,46.7c-1.224,5.4.154,8.655,4.085,10.04a11.754,11.754,0,0,0,7.293.126l.35-2.469-2.6-.024c-2.468,0-3.085-2.057-2.246-6.123,1-4.93,11.048-48.253,11.048-48.253Z" transform="translate(-1271.682 -692.947)" fill="#fff"/><path d="M1471.258,704.824s-9.112,38.7-10.929,46.7c-1.223,5.4.156,8.655,4.052,10.04a11.838,11.838,0,0,0,7.323.126l.333-2.469-2.608-.024c-2.451,0-3.064-2.057-2.235-6.123,1-4.93,11.054-48.253,11.054-48.253Z" transform="translate(-1260.048 -692.947)" fill="#fff"/><path d="M1486.627,704.824s-9.114,38.7-10.936,46.7c-1.237,5.4.149,8.655,4.079,10.04a11.744,11.744,0,0,0,7.289.126l.344-2.469-2.6-.024c-2.471,0-3.081-2.057-2.252-6.123,1.008-4.93,11.06-48.253,11.06-48.253Z" transform="translate(-1258.477 -692.947)" fill="#fff"/><path d="M1321.6,694.049a16.5,16.5,0,0,0-11.391,4.656c-4.518,4.273-5.752,9.367-7.062,15.231l-3.918,17.2H1287.6l-.717,2.794H1298.6l-8.27,36.31c-1.521,6.307-2.057,7.934-4.285,10.766a7.364,7.364,0,0,1-5.3,2.907c-.412.044-.924.044-1.366.044l-.789,2.4,1.478.04a16.617,16.617,0,0,0,11.478-4.646c4.51-4.267,5.721-9.393,7.052-15.248l7.424-32.567h11.806l.729-2.794h-11.905l4.754-20.4c1.506-6.317,2.37-9.033,4.709-11.367a7.967,7.967,0,0,1,4.2-2.438,13,13,0,0,1,3.705-.008l.323-2.715c-1.058-.129-2.753-.156-2.753-.156" transform="translate(-1278.594 -694.049)" fill="#fff"/><path d="M1452.811,741.107h-16.9c1.147-4.285,4.707-11.046,10.95-11.046,6.753,0,6.941,6.761,5.951,11.046m-5.354-14.468a18.727,18.727,0,0,0-18.612,15.225c-3.115,15.736,8.7,18.752,13.691,18.752a16.9,16.9,0,0,0,10.181-3.323l-2.239-2.593a12,12,0,0,1-6.223,1.886c-8.235,0-10.137-5.809-8.98-11.782h23.7c2.41-7.951-.194-18.165-11.516-18.165" transform="translate(-1263.277 -690.716)" fill="#fff"/><path d="M1337.109,745.777c-1.338,3.978-4.588,11.783-12.011,11.783-8.893,0-4.524-13.284-3.853-15.818.691-2.565,3.92-12.007,11.085-12.007,8.394,0,5.987,12.481,4.779,16.043m2.529-14.961h-.226c-1.774-3.3-4.956-4.282-8.32-4.282-10.066,0-15.851,8.243-17.547,16.146-2.417,11.322,1.008,17.8,10.536,17.8,4.146,0,7.272-1.024,11.3-4.7l1.78,3.677h3.354l7.012-31.961h-7.1Z" transform="translate(-1275.095 -690.727)" fill="#fff"/><path d="M1385.555,745.777c-1.363,3.977-4.582,11.784-12.012,11.784-8.89,0-4.532-13.285-3.86-15.819.671-2.565,3.927-12.007,11.074-12.007,8.4,0,5.987,12.481,4.8,16.043m3.323-18.281-.8,3.32h-.2c-1.79-3.3-5.006-4.281-8.35-4.281-10.067,0-15.834,8.242-17.544,16.145-2.431,11.323,1.011,17.8,10.534,17.8,4.15,0,7.269-1.023,11.29-4.7l1.77,3.677h3.388l7-31.961Z" transform="translate(-1270.14 -690.726)" fill="#fff"/><path d="M1514.015,745.777c-1.328,3.978-4.571,11.783-11.987,11.783-8.9,0-4.548-13.284-3.857-15.818.684-2.565,3.911-12.007,11.081-12.007,8.388,0,5.984,12.481,4.763,16.043m2.545-14.961h-.2c-1.79-3.3-4.976-4.282-8.334-4.282-10.073,0-15.854,8.243-17.54,16.146-2.431,11.322,1.014,17.8,10.531,17.8,4.133,0,7.268-1.024,11.3-4.7l1.769,3.677h3.359l6.992-31.961h-7.087Z" transform="translate(-1256.997 -690.727)" fill="#fff"/><path d="M1418.9,748.261c-.7,2.606-3.9,11.786-10.562,11.786-7.982,0-6.082-12.131-5.206-15.819,1.2-5.082,3.955-11.721,10.566-11.721,8.985,0,5.887,13.137,5.2,15.754m-2.545-19.244c-3.913,0-8.094,1.689-10.208,4.653h-.344l6.669-28.846h-7l-12.965,57.1h3.684l3.428-3.835a10.79,10.79,0,0,0,9.191,4.868c9.52,0,15.736-6.477,18.175-17.8,1.7-7.9-.545-16.146-10.627-16.146" transform="translate(-1266.942 -692.947)" fill="#fff"/></g><g transform="translate(0 0.422)"><rect width="60.142" height="93.452" fill="#fff"/><path d="M1314.7,694.049a13.857,13.857,0,0,0-9.565,3.91c-3.794,3.588-4.83,7.865-5.93,12.789l-3.29,14.442h-9.764l-.6,2.346h9.84l-6.944,30.488c-1.277,5.3-1.727,6.662-3.6,9.04a6.185,6.185,0,0,1-4.447,2.441c-.346.037-.776.037-1.147.037l-.662,2.012,1.241.033a13.953,13.953,0,0,0,9.638-3.9c3.787-3.583,4.8-7.888,5.922-12.8l6.234-27.345h9.913l.612-2.346h-10l3.992-17.131c1.265-5.3,1.99-7.585,3.954-9.544a6.688,6.688,0,0,1,3.531-2.047,10.906,10.906,0,0,1,3.111-.007l.271-2.28c-.888-.108-2.312-.131-2.312-.131" transform="translate(-1270.176 -686.308)" fill="#add502"/><circle cx="4.164" cy="4.164" r="4.164" transform="translate(37.011 48.114)" fill="#add502"/></g></g></g></svg>